<svg version="1.2" xmlns="http://www.w3.org/2000/svg" viewBox="0 0 506 506" width="506" height="506">
	<title>icon_tor-svg</title>
	<style>
		.s0 { fill: #000000 } 
	</style>
	<filter id="f0">
		<feFlood flood-color="#d1d5db" flood-opacity="1" />
		<feBlend mode="normal" in2="SourceGraphic"/>
		<feComposite in2="SourceAlpha" operator="in" />
	</filter>
	<g id="Layer" filter="url(#f0)">
		<g id="Layer">
			<g id="Layer">
				<path id="Layer" class="s0" d="m139.3 288.7c-4.2-1.6-9.2-0.8-11.7 3.4-11.8 20.1-17.6 43.6-17.6 67.1 0 16 2.5 31.9 8.3 47 0.9 3.4 4.2 5.9 7.6 5.9 0.8 0 2.5 0 3.4 0 4.2-1.7 6.7-6.7 5-10.9-5-13.4-7.6-26.9-7.6-41.1 0-21 5.1-41.1 16-59.6 1.7-4.2 0.8-9.2-3.4-11.8z"/>
				<path id="Layer" class="s0" d="m183 393.7c-4.2-13.5-5.9-26.9-5.9-42 0-4.2 0-9.2 0-14.3 1.7-13.4 5.9-26 13.4-38.6 2.6-4.2 1.7-9.2-2.5-11.7-4.2-2.6-9.2-1.7-11.7 2.5-8.4 14.2-14.3 29.4-16 45.3-0.8 5-0.8 10.9-0.8 15.9 0 16 2.5 31.9 6.7 46.2 8.4 26.9 23.5 51.2 46.2 71.4 1.6 1.6 4.2 2.5 5.8 2.5 2.5 0 5.1-0.9 6.7-2.5 2.6-3.4 2.6-8.4-0.8-11.8-20.1-18.5-33.6-39.4-41.1-62.9z"/>
				<path id="Layer" class="s0" d="m388.6 316.4c-1.7-4.2-6.7-6.7-10.9-5-4.2 1.7-6.7 6.7-5 10.9 4.2 12.6 5.8 25.2 5.8 37.8 0 11.7-1.6 22.6-5 33.6-0.8 4.1 1.7 8.3 5.9 10q1.2 0 2.5 0c3.4 0 6.7-1.7 8.4-6.7q5-18.9 5-37.8c0-15.1-2.5-29.3-6.7-42.8z"/>
				<path id="Layer" fill-rule="evenodd" class="s0" d="m445.7 359.2c0 55.4-33.6 105-84.8 125.9-33.6 13.5-69.6 20.2-105.7 20.2q-0.4 0-0.8 0-0.1 0-0.1 0 0 0 0 0c-36.6-0.1-73.3-6-109.1-18.5-52-21.8-85.6-71.3-85.6-126.7 0-43.7 21-84.8 56.2-110l48.7-33.5c26-18.5 36.9-37 37.8-63.8 0-35.3-37.8-78.1-73.9-118.4-5.9-5.9-10.9-12.6-16.8-18.5-1.6-3.3-2.5-7.5-0.8-10 1.7-3.4 5.9-5.1 9.2-4.2 49.2 9.1 81.2 32.7 102.1 59.7 2.2-16.3 5.7-30.3 10.4-42.1l3.4-7.5c2.5-6.8 10-11.8 17.6-11.8 7.5 0 14.3 4.2 17.6 11.8l3.4 7.5c4.5 10.9 7.9 24.4 10.2 40.2 20.9-26.2 52.5-48.9 100.6-57.8 3.3-0.9 6.7 0.8 9.2 4.2 1.7 3.3 1.7 6.7-0.8 10-5.1 5.9-11 12.6-16.8 18.5-36.1 40.3-73.9 82.3-73.9 117.5 0.8 26.9 11.8 45.3 37.8 63.8l48.7 33.6c35.2 25.2 56.2 67.1 56.2 109.9zm-193.1-236.7c3.4-12.5 8.4-26 16-39.4-1.7-22.7-5-42-10.9-55.4l-3.4-7.6c0-0.8-0.8-0.8-1.7-0.8-0.8 0-1.6 0-1.6 0.8l-3.4 7.6c-5.9 13.4-9.2 31.9-10.9 55.4 7.5 13.4 12.6 26.9 15.9 39.4zm176.3 237.6c0-37.8-18.5-73.9-49.5-96.5l-48.7-33.6c-30.2-21-44.5-44.5-45.3-77.2 0-42 38.6-85.7 75.5-127.6-35.8 12.7-59 34.2-73.9 57.3q0 0.3 0.1 0.6c0 1.7 0 3.4-0.9 5-20.6 33.9-24.4 71-25.1 85.3q0.8 1.6 0.8 3.7 0 1.4 0 2.8c6.6 16.2 15.4 28.2 28.5 36.6l48.7 33.6c12.6 9.3 22.7 19.3 31.9 31.9 2.5 4.2 1.7 9.3-1.7 11.8-2.5 0.8-4.2 1.6-5.9 1.6-2.5 0-5-0.8-6.7-3.3q-11.3-16.4-27.7-27.7l-48.7-33.6q-5.7-4-10.7-8.6c6 15.4 14 24.4 18.3 28.8 5.9 5.8 13.4 12.6 19.3 19.3 3.4 3.3 2.5 8.4-0.8 11.7-1.7 1.7-4.2 2.5-5.9 2.5-2.5 0-4.2-0.8-5.9-2.5-5.9-6.7-12.6-12.6-18.5-18.4-2.2-2.1-5.2-5.2-8.4-9.4 1 13.7 1.7 25.6 1.7 32 0 5.1-3.3 8.4-8.4 8.4-5 0-8.4-3.3-8.4-8.4 0-9.6-1.7-33.1-3.6-55.7-6.2 11.6-13.6 18.4-19 23l-1.7 1.7c-5.9 5.8-12.6 11.7-18.5 18.4 0 1.7-2.5 2.5-5 2.5-1.7 0-4.2-0.8-5.9-2.5-3.3-3.3-3.3-8.4-0.8-11.7 6.7-6.7 15.1-15.1 21-21 4.5-4.2 10.5-9.7 15.4-19.3q-4.8 4.5-10.4 8.4l-48.7 33.6c-6.7 4.2-12.6 10-17.6 15.9-1.7 1.7-3.4 2.5-5.9 2.5-1.7 0-4.2-0.8-5.9-2.5-3.3-3.4-3.3-8.4-0.8-11.7 5.9-6.8 12.6-12.6 20.2-18.5l48.6-33.6c13.7-9.7 22.8-21.7 29.4-38.9q0-0.3 0.1-0.6-0.1-0.4-0.1-0.8c0.2-5.7-0.1-17.2-2.7-31.4-2.5-13.5-6.9-29.4-14.3-45.1-13.9-29-38.8-58.4-82.9-73.7 37.8 41.9 75.6 85.6 75.6 127.6-0.9 33.5-14.3 56.2-45.4 77.2l-48.6 33.6c-30.3 22.6-48.7 58.7-48.7 96.5 0 48.7 29.4 92.3 74.7 110.8q14.6 5 29.5 8.5c-13.5-7.1-25.4-16.6-35.4-27.8-3.3-3.4-2.5-8.4 0.8-11.8 3.4-3.3 8.4-2.5 11.8 0.9 11.7 13.4 26.9 23.5 43.6 30.2l2.6 0.8c15.2 5.8 29.3 11.6 43.6 14.7 2.1-6.9 5-22.8 5-57.5 0-5 3.4-8.4 8.4-8.4 5.1 0 8.4 3.4 8.4 8.4 0 18.7-0.8 34.3-2.4 46.4 4.8-3.7 9.2-7.4 13.3-11.1q24-21.4 35.3-47.9c7.5-17.6 11.7-36.1 11.7-57.1 0-15.9-3.3-31-10-44.4-1.7-4.2 0-9.3 4.2-11 4.2-1.6 9.2 0 10.9 4.2 8.4 16.8 11.7 33.6 11.7 52.1 0 23.5-4.2 44.5-13.4 63.8-8.3 19.1-21.5 36.5-38.8 52.3q4.6-1.8 9.4-3.6l2.5-0.9c22.7-9.2 42-25.2 55.4-46.2 2.6-4.1 7.6-5 11.8-2.5 4.2 2.5 5 7.6 2.5 11.8-11.9 18.5-28.1 34-47.1 45q14.6-3.7 28.6-8.9c44.5-18.5 73.9-62.1 73.9-110.8z"/>
			</g>
		</g>
	</g>
</svg>